<svg
  version="1.0"
  xmlns="http://www.w3.org/2000/svg"
  width="1628.000000pt"
  height="1295.000000pt"
  viewBox="0 0 1628.000000 1295.000000"
  preserveAspectRatio="xMidYMid meet"
>
  <g
    transform="translate(0.000000,1295.000000) scale(0.100000,-0.100000)"
    fill="currentColor"
    stroke="none"
  >
    <path
      d="M8070 12809 c-253 -28 -422 -128 -517 -305 l-30 -56 -5 64 c-12 153
-115 238 -287 238 -36 0 -235 -18 -441 -41 -340 -37 -377 -43 -396 -63 -18
-18 -30 -83 -94 -512 -42 -281 -70 -503 -66 -518 4 -17 15 -28 34 -33 15 -3
126 4 247 17 167 18 223 28 236 41 9 9 19 42 23 78 11 99 14 100 65 14 43 -73
48 -78 83 -81 20 -2 138 8 263 22 124 14 228 26 230 26 2 0 11 7 19 16 33 32
19 65 -89 217 -58 82 -105 151 -105 155 0 4 21 16 47 26 46 19 132 95 166 146
l16 25 -7 -35 c-4 -19 -7 -87 -6 -150 0 -142 21 -206 92 -278 94 -97 200 -128
432 -126 182 2 267 18 377 71 76 37 184 140 245 233 27 41 51 76 53 78 1 2 3
-24 4 -56 2 -164 102 -274 296 -328 92 -25 383 -31 516 -10 57 9 110 22 116
29 7 7 33 68 56 136 l44 123 6 -68 c20 -214 200 -337 548 -376 240 -27 405 29
564 189 32 32 73 82 93 111 19 28 37 52 39 52 2 0 2 -3 0 -7 -2 -5 -50 -85
-106 -180 -55 -94 -101 -177 -101 -185 0 -42 29 -55 250 -118 177 -50 226 -60
244 -52 13 6 47 53 80 111 32 56 62 101 66 101 5 0 62 -14 127 -31 216 -57
354 -49 488 26 150 85 265 256 265 394 0 71 -18 119 -62 167 -69 75 -120 93
-695 253 -100 28 -193 51 -206 51 -13 0 -31 -8 -39 -17 -8 -10 -79 -127 -157
-260 -79 -134 -145 -243 -147 -243 -3 0 9 26 25 58 101 201 95 387 -17 498
-109 107 -340 175 -602 176 -131 1 -207 -15 -301 -63 -59 -29 -174 -132 -212
-189 -9 -14 1 26 23 89 22 63 40 125 40 137 0 35 -40 59 -163 98 -147 46 -234
59 -392 59 -287 0 -452 -90 -575 -314 l-27 -51 -5 84 c-9 170 -94 271 -267
320 -80 22 -279 31 -401 17z m282 -59 c276 -32 375 -179 308 -460 -38 -157
-139 -330 -242 -410 -112 -89 -240 -124 -458 -124 -168 -1 -257 20 -332 77
-87 67 -113 133 -112 287 2 191 72 369 189 479 101 94 211 135 405 151 141 11
147 11 242 0z m1125 -65 c90 -6 241 -41 315 -74 l48 -20 -52 -148 c-28 -81
-53 -150 -54 -152 -2 -2 -42 6 -90 18 -124 31 -257 38 -320 17 -82 -27 -144
-109 -144 -188 0 -88 65 -113 293 -113 92 0 167 0 167 0 0 -5 -92 -261 -95
-263 -12 -12 -201 -32 -306 -32 -208 0 -355 35 -437 105 -111 93 -108 305 8
540 78 159 161 239 300 285 62 21 207 40 260 34 14 -2 62 -6 107 -9z m-2121
-18 c101 -53 127 -167 73 -312 -38 -103 -156 -200 -267 -221 -18 -4 -32 -9
-30 -13 2 -3 35 -49 74 -101 38 -52 96 -132 127 -177 l57 -82 -42 -6 c-65 -8
-396 -45 -412 -45 -7 0 -54 70 -102 155 l-89 155 -3 -42 c-5 -83 -33 -283 -40
-289 -8 -8 -401 -53 -408 -47 -6 6 136 951 145 960 3 4 164 25 356 47 370 43
506 47 561 18z m3254 -131 c307 -66 414 -196 354 -430 -22 -85 -93 -219 -159
-298 -139 -167 -297 -237 -505 -224 -194 13 -357 62 -450 136 -22 18 -51 55
-67 88 -52 106 -33 255 54 432 76 156 206 270 348 307 67 17 325 10 425 -11z
m1011 -277 c457 -128 509 -150 550 -236 64 -132 -55 -345 -247 -439 -76 -38
-81 -39 -183 -39 -90 1 -127 6 -244 38 -75 20 -143 37 -150 37 -7 0 -43 -51
-80 -114 l-68 -113 -172 48 c-95 27 -184 52 -199 55 -16 4 -28 10 -28 15 0 8
73 133 255 439 51 85 125 210 164 278 39 67 74 122 76 122 2 0 149 -41 326
-91z m-1973 -15 c53 -14 97 -26 99 -27 2 -2 -39 -149 -44 -156 -1 -2 -9 4 -18
13 -15 14 -35 15 -154 10 -147 -7 -260 6 -282 32 -14 18 1 80 29 113 46 57
186 63 370 15z"
    />
    <path
      d="M8061 12426 c-88 -29 -139 -114 -148 -245 -5 -67 -3 -79 16 -103 39
-48 131 -58 203 -22 81 41 154 246 117 327 -21 47 -112 67 -188 43z m128 -62
c39 -12 -23 -204 -80 -246 -29 -22 -102 -27 -124 -8 -33 27 -5 167 43 221 37
42 96 54 161 33z"
    />
    <path
      d="M6833 12393 c-13 -2 -23 -7 -23 -11 0 -4 -7 -47 -14 -97 -8 -49 -12
-92 -10 -94 8 -8 155 19 184 34 16 8 36 29 45 45 18 35 20 101 3 118 -12 12
-134 15 -185 5z m137 -64 c0 -33 -50 -69 -96 -69 -15 0 -20 61 -7 73 11 11
103 8 103 -4z"
    />
    <path
      d="M10327 12240 c-81 -26 -154 -137 -164 -250 -5 -53 -3 -61 19 -83 26
-26 84 -47 128 -47 89 1 192 110 228 244 15 51 -5 99 -48 121 -39 20 -124 28
-163 15z m118 -64 c28 -12 35 -20 35 -43 -1 -71 -94 -197 -154 -209 -20 -3
-47 0 -69 10 -43 17 -46 37 -22 107 44 124 119 173 210 135z"
    />
    <path
      d="M11562 12007 c-14 -19 -102 -173 -102 -179 0 -5 50 -19 113 -33 16
-3 44 -3 64 1 68 13 135 111 102 150 -29 35 -162 81 -177 61z m87 -78 c35 -12
39 -28 13 -52 -19 -17 -38 -21 -85 -19 l-28 2 22 40 c25 43 30 46 78 29z"
    />
    <path
      d="M5755 12549 c-282 -60 -476 -106 -485 -115 -17 -16 -27 -129 -29
-300 -1 -90 1 -103 20 -120 20 -18 23 -18 122 3 56 12 104 19 106 17 2 -2 -1
-115 -8 -251 -16 -321 -16 -340 -1 -358 19 -22 54 -19 269 25 206 43 238 53
245 79 3 9 12 151 21 316 9 165 19 303 23 306 4 3 54 16 111 28 58 12 112 28
122 37 13 11 18 40 23 122 4 59 9 144 12 188 6 74 4 84 -15 103 -12 12 -31 21
-43 20 -13 0 -234 -46 -493 -100z m487 -56 c-2 -49 -7 -121 -10 -162 l-7 -75
-125 -26 c-86 -18 -126 -31 -127 -41 -3 -18 -33 -571 -33 -608 0 -25 -4 -30
-37 -35 -21 -4 -112 -23 -202 -42 -90 -19 -166 -32 -169 -30 -5 5 12 372 25
558 l6 86 -114 -24 c-63 -14 -122 -27 -133 -30 -18 -6 -18 1 -11 157 4 90 9
166 11 168 6 6 867 188 899 190 l30 1 -3 -87z"
    />
    <path
      d="M4953 12359 c-101 -15 -246 -55 -332 -92 -218 -95 -342 -228 -388
-414 -25 -103 -22 -324 6 -428 72 -270 261 -348 590 -243 163 51 387 166 416
212 10 17 11 53 4 180 -12 220 -22 229 -176 152 -158 -79 -282 -106 -303 -67
-26 50 -3 122 52 165 46 35 167 73 278 88 103 13 130 29 130 76 -1 15 -5 99
-10 187 -10 195 -11 196 -129 194 -42 -1 -104 -5 -138 -10z m201 -111 c3 -35
7 -109 10 -164 l5 -101 -57 -7 c-146 -17 -310 -75 -359 -128 -67 -71 -69 -222
-5 -257 54 -29 178 -3 328 68 l101 49 7 -61 c3 -33 6 -97 6 -143 l0 -83 -59
-36 c-180 -108 -370 -175 -526 -182 -95 -4 -103 -3 -155 24 -33 17 -68 45 -87
71 -110 146 -116 519 -11 684 92 146 325 272 568 307 41 6 86 13 100 15 14 2
48 4 77 5 l51 1 6 -62z"
    />
    <path
      d="M3615 11879 c-225 -100 -416 -186 -422 -191 -20 -16 -16 -53 42 -424
31 -191 54 -355 51 -364 -2 -9 -4 -7 -5 6 -1 28 -32 54 -62 54 -13 0 -76 -34
-139 -75 -63 -40 -118 -71 -121 -67 -4 4 -48 133 -99 287 -50 154 -99 286
-108 293 -9 6 -25 12 -35 12 -28 0 -397 -241 -409 -266 -8 -17 21 -117 147
-500 86 -264 164 -487 173 -496 28 -33 63 -21 202 70 74 48 224 146 334 217
111 72 203 138 208 151 6 13 31 30 62 42 125 50 801 353 814 366 18 18 18 36
-3 176 -11 74 -24 125 -36 142 -15 22 -17 32 -8 51 17 37 -23 267 -51 289 -19
16 -20 19 -6 40 14 21 13 38 -9 173 -14 83 -25 153 -25 157 0 16 -34 38 -58
38 -15 0 -211 -82 -437 -181z m439 104 c14 -53 38 -255 30 -262 -5 -4 -105
-50 -221 -101 l-213 -94 7 -40 c12 -82 -2 -83 228 20 116 51 215 92 220 90 12
-3 46 -198 36 -207 -3 -4 -102 -48 -218 -100 -212 -93 -213 -93 -212 -124 1
-16 4 -42 8 -56 l6 -27 213 94 c117 52 217 94 221 94 8 0 46 -228 39 -235 -4
-4 -233 -106 -636 -284 -90 -40 -166 -70 -169 -68 -4 4 -152 928 -153 952 0 6
111 60 248 120 136 60 315 139 397 176 83 37 153 68 157 68 4 1 9 -7 12 -16z
m-999 -1187 c72 47 138 90 147 95 14 8 23 -10 63 -131 26 -77 45 -144 43 -150
-3 -10 -610 -408 -629 -413 -6 -1 -79 206 -163 460 l-153 462 176 115 176 115
105 -319 105 -319 130 85z"
    />
    <path
      d="M12498 12023 c-27 -6 -658 -799 -658 -826 0 -13 8 -31 18 -40 27 -24
404 -187 434 -187 22 0 41 18 104 95 43 52 81 95 85 95 4 0 37 -14 74 -30 262
-117 418 -127 589 -38 82 43 194 156 232 233 24 50 29 72 29 135 -1 86 -15
121 -76 179 -52 51 -135 93 -489 249 -327 143 -318 140 -342 135z m311 -189
c453 -200 494 -224 527 -309 57 -150 -110 -362 -331 -420 -115 -30 -210 -12
-420 79 -71 31 -130 55 -131 53 -1 -1 -38 -48 -83 -105 -45 -57 -86 -102 -90
-100 -5 2 -90 39 -190 83 -121 53 -180 83 -177 92 7 16 597 753 604 753 3 0
134 -57 291 -126z"
    />
    <path
      d="M12678 11516 c-32 -41 -60 -80 -63 -88 -6 -16 71 -51 137 -63 48 -9
116 29 141 78 18 35 18 39 2 63 -15 23 -126 85 -150 84 -5 -1 -36 -34 -67 -74z
m162 -46 c0 -5 -10 -16 -22 -24 -23 -17 -57 -20 -95 -10 -23 6 -23 6 8 45 l30
39 40 -20 c21 -11 39 -25 39 -30z"
    />
    <path
      d="M13287 11166 c-445 -434 -438 -425 -404 -468 19 -25 779 -471 810
-476 24 -4 42 9 132 99 73 72 105 110 105 126 0 18 6 23 26 23 38 0 214 175
214 213 0 23 4 27 28 27 23 0 51 23 145 118 70 71 117 127 117 139 0 11 -10
29 -22 40 -40 37 -785 473 -808 473 -15 0 -121 -97 -343 -314z m598 104 c105
-62 259 -154 344 -204 85 -50 155 -95 156 -101 1 -5 -42 -52 -95 -103 l-97
-93 -207 122 -207 122 -40 -39 c-31 -30 -36 -41 -27 -50 7 -6 92 -58 188 -114
96 -57 183 -108 192 -115 15 -10 8 -20 -60 -88 l-77 -77 -203 120 c-111 66
-208 120 -215 120 -14 0 -83 -67 -76 -74 4 -4 353 -211 392 -233 17 -9 9 -20
-70 -96 l-88 -86 -46 27 c-242 140 -708 418 -709 422 0 6 434 439 595 593
l100 95 30 -18 c17 -10 116 -69 220 -130z"
    />
    <path
      d="M2080 11043 c-69 -49 -686 -598 -693 -617 -6 -18 39 -116 216 -477
123 -250 231 -460 240 -467 9 -7 27 -12 42 -10 34 4 712 593 721 627 9 32
-110 275 -142 289 -16 8 -20 17 -17 34 6 34 -103 257 -132 268 -17 7 -21 14
-18 37 7 44 -128 310 -163 323 -31 12 -25 13 -54 -7z m98 -178 l62 -125 -180
-157 c-99 -86 -180 -160 -180 -165 0 -8 38 -88 46 -97 1 -1 82 66 179 150 97
85 180 155 184 157 3 1 28 -41 54 -94 40 -79 46 -99 35 -109 -7 -7 -69 -61
-138 -120 -69 -60 -145 -126 -169 -148 l-43 -39 23 -49 c12 -27 24 -49 27 -49
2 0 77 64 166 142 88 78 169 148 178 156 15 13 22 4 71 -95 l55 -109 -91 -80
c-51 -44 -199 -173 -329 -287 -130 -114 -241 -207 -246 -207 -10 0 -434 858
-430 871 3 9 650 577 658 578 3 1 33 -55 68 -124z"
    />
    <path
      d="M14620 10803 c-26 -10 -827 -553 -845 -573 -11 -13 -15 -28 -11 -43
8 -34 343 -327 374 -327 13 0 50 18 83 41 33 22 62 39 65 37 2 -2 -7 -40 -21
-84 -14 -43 -22 -86 -19 -96 6 -21 365 -335 396 -347 33 -12 66 6 77 43 6 17
24 101 42 186 18 85 34 157 35 159 2 2 22 -4 46 -14 147 -59 324 -25 441 84
125 117 123 247 -6 388 -90 98 -620 557 -639 552 -2 0 -10 -3 -18 -6z m323
-325 c340 -297 362 -323 362 -428 0 -80 -22 -116 -107 -170 -73 -47 -139 -64
-233 -58 -60 4 -84 11 -140 42 -37 20 -69 35 -71 33 -3 -2 -23 -94 -45 -203
-23 -109 -44 -204 -48 -211 -7 -13 -351 281 -351 301 0 6 23 80 50 164 28 85
50 158 50 164 0 5 -21 -8 -46 -31 -25 -22 -86 -67 -135 -101 l-89 -61 -156
137 c-127 112 -153 139 -142 149 7 7 139 98 293 201 154 104 327 221 385 261
58 40 110 71 117 70 7 -1 145 -118 306 -259z"
    />
    <path
      d="M14652 10264 c-45 -30 -82 -58 -82 -62 0 -9 62 -60 109 -89 88 -56
223 8 182 85 -6 11 -37 42 -69 70 l-59 51 -81 -55z m117 -58 c37 -38 34 -56
-7 -56 -28 0 -92 33 -92 48 0 7 49 41 61 42 3 0 20 -15 38 -34z"
    />
    <path
      d="M12293 10395 c-707 -332 -1096 -516 -1145 -543 -27 -14 -48 -32 -48
-41 0 -9 36 -66 79 -126 l80 -110 -505 -249 c-345 -171 -504 -255 -504 -265 0
-9 41 -85 90 -169 l89 -154 -357 -175 c-196 -96 -435 -213 -530 -259 -95 -45
-175 -90 -178 -99 -4 -10 15 -48 50 -100 31 -47 56 -87 56 -90 0 -2 -12 0 -26
5 -34 13 -93 13 -135 -1 -48 -16 -404 -183 -864 -404 -214 -103 -451 -217
-525 -252 -74 -35 -148 -76 -165 -91 l-30 -27 25 29 c14 15 57 44 95 63 196
99 427 227 435 244 6 10 10 24 10 31 0 19 -512 876 -547 917 -43 50 -109 54
-220 12 -226 -84 -454 -233 -624 -408 -106 -109 -122 -143 -96 -205 8 -18 101
-159 207 -313 107 -154 268 -388 358 -520 91 -132 181 -262 200 -290 19 -27
28 -43 20 -35 -16 16 -285 382 -563 765 -88 121 -181 241 -206 268 -41 41 -51
47 -88 47 -23 0 -61 -10 -84 -21 -114 -58 -325 -227 -432 -346 -70 -78 -160
-195 -182 -237 -21 -41 -20 -114 2 -156 13 -26 262 -310 305 -350 8 -7 610
-678 709 -790 46 -52 94 -99 106 -104 53 -21 277 137 481 340 124 124 163 180
164 234 0 37 -41 115 -108 205 -33 44 -59 81 -57 83 2 2 12 -1 23 -7 41 -22
102 29 87 71 -6 18 -35 267 -35 303 0 23 6 15 23 -35 33 -97 72 -157 156 -240
85 -84 155 -129 263 -168 69 -25 83 -27 238 -26 184 1 246 13 408 79 48 20 91
36 96 38 8 2 180 -314 173 -318 -1 -1 -55 -30 -120 -64 -489 -257 -840 -619
-1092 -1129 -76 -154 -119 -261 -185 -457 l-57 -170 -11 50 c-6 28 -43 223
-82 435 -39 212 -76 397 -82 413 -24 63 -35 59 -566 -218 l-203 -106 -219 224
c-154 158 -232 229 -258 240 -51 21 -154 151 -145 185 3 12 8 22 10 22 3 0 46
-38 97 -84 50 -45 175 -157 278 -248 202 -179 226 -192 290 -165 18 8 112 95
210 194 201 205 214 227 184 307 -10 25 -45 75 -80 113 -35 37 -253 277 -485
533 -231 256 -435 475 -453 488 -52 37 -104 31 -174 -22 -186 -141 -369 -386
-404 -541 -14 -63 -3 -82 132 -209 80 -77 109 -109 98 -113 -8 -4 -27 -19 -42
-34 l-28 -27 0 -187 c0 -102 4 -194 9 -204 8 -13 -20 -52 -142 -197 -84 -99
-215 -256 -292 -347 -77 -92 -141 -173 -143 -181 -2 -7 29 -53 69 -101 60 -73
69 -89 58 -100 -8 -7 -198 -171 -424 -364 -225 -194 -416 -361 -423 -371 -12
-16 -5 -31 58 -125 l72 -107 -35 -37 c-19 -20 -175 -193 -348 -386 -172 -192
-392 -437 -489 -544 -301 -334 -310 -345 -308 -365 2 -10 11 -24 20 -30 13 -8
53 8 195 81 98 50 457 234 798 408 341 175 626 322 633 327 6 6 12 16 12 22 0
6 -39 60 -86 120 -47 59 -84 109 -82 111 2 1 224 120 493 263 312 165 491 266
493 277 2 9 -37 81 -87 161 -50 79 -91 148 -91 153 0 9 519 285 525 279 1 -1
62 -121 134 -265 l131 -263 -30 -75 c-34 -84 -35 -95 -18 -141 11 -30 8 -38
-51 -138 -92 -157 -100 -178 -94 -246 5 -56 3 -65 -95 -286 -55 -126 -103
-239 -107 -251 -7 -26 10 -63 29 -63 13 0 340 354 366 397 11 17 10 25 -9 52
-26 36 -28 32 64 138 l70 81 5 -685 c5 -663 6 -685 24 -699 17 -12 216 -14
1342 -14 727 0 1330 3 1338 6 9 4 21 15 26 24 10 19 -25 278 -155 1140 -36
239 -72 482 -80 540 -8 58 -19 128 -25 156 -9 41 -8 59 3 85 8 19 99 156 203
304 103 149 351 504 550 790 200 286 432 618 516 737 84 119 169 247 188 284
30 60 34 76 33 138 0 39 -8 89 -16 112 -8 22 -112 192 -230 376 l-216 335 62
64 c168 176 802 892 805 909 2 12 -22 53 -64 106 l-68 87 25 19 c399 322 803
651 833 679 l40 36 -29 49 c-15 27 -46 75 -67 107 -22 32 -38 62 -36 67 2 5
35 42 73 82 502 524 1029 1077 1088 1144 20 23 37 48 37 56 0 19 -20 38 -39
37 -9 0 -201 -87 -428 -194z m291 43 c-143 -152 -466 -491 -740 -778 -176
-184 -326 -345 -332 -357 -20 -37 -14 -60 43 -147 30 -46 55 -89 55 -94 0 -6
-102 -93 -226 -194 -598 -484 -659 -535 -658 -550 1 -9 31 -54 68 -101 36 -47
66 -88 66 -91 0 -3 -102 -119 -227 -258 -125 -139 -301 -335 -391 -435 -90
-101 -167 -183 -171 -183 -3 0 -81 112 -173 248 -91 136 -233 345 -314 465
-81 119 -145 219 -143 221 2 3 139 70 304 151 165 80 402 196 528 257 178 88
227 115 227 130 0 11 -38 84 -85 163 -47 79 -85 148 -85 153 0 5 224 119 499
255 274 135 501 252 504 261 4 9 -25 58 -75 126 -45 62 -77 115 -72 120 5 4
137 69 294 143 430 205 1134 536 1140 537 2 0 -14 -19 -36 -42z m-4687 -2395
c222 -372 241 -408 224 -419 -9 -7 -106 -59 -214 -115 -293 -151 -323 -188
-321 -392 0 -65 -3 -114 -6 -110 -4 5 -148 213 -320 463 -172 250 -319 462
-326 471 -24 27 -16 43 64 121 141 139 347 275 528 348 55 22 106 40 114 40 9
-1 111 -161 257 -407z m1514 -144 c22 -11 69 -82 569 -854 457 -708 415 -634
415 -721 0 -69 -2 -74 -45 -136 -72 -102 -250 -358 -444 -636 -98 -141 -318
-457 -489 -702 -171 -245 -350 -502 -399 -571 -116 -167 -133 -218 -108 -324
5 -22 14 -76 20 -120 6 -44 44 -303 85 -575 103 -690 145 -977 145 -1000 0
-20 -12 -20 -1237 -18 l-1238 3 -3 766 -2 766 60 72 c70 83 88 133 66 183 -17
40 -194 278 -217 291 -30 18 -67 -1 -90 -45 l-22 -42 -94 188 c-52 103 -93
189 -91 191 2 1 93 51 203 110 110 59 203 112 207 119 17 25 6 62 -35 120 -57
80 -63 91 -48 81 39 -23 91 -5 288 98 266 140 424 219 429 214 3 -2 51 -250
107 -551 72 -379 108 -551 119 -563 20 -19 65 -20 84 -2 7 8 31 86 54 174 72
289 149 502 260 730 248 505 603 868 1081 1104 164 81 183 95 175 131 -6 30
-222 447 -244 473 -22 25 -50 21 -138 -19 -364 -167 -658 -149 -860 52 -102
101 -173 277 -124 305 48 28 1217 587 1387 662 143 64 141 64 174 46z m-2590
-296 c107 -147 484 -661 636 -868 178 -240 213 -292 213 -315 0 -55 -416 -430
-477 -430 -6 0 -87 84 -180 187 -290 324 -632 703 -755 836 -80 87 -118 135
-118 151 0 61 223 315 385 437 62 47 185 127 197 128 4 1 49 -56 99 -126z
m-447 -1112 c127 -139 260 -286 296 -326 36 -40 125 -138 198 -218 72 -80 132
-151 132 -159 0 -8 -72 -88 -159 -179 -126 -130 -162 -162 -174 -154 -44 29
-1027 917 -1027 927 0 6 19 46 42 90 70 135 164 252 283 351 l59 50 60 -64
c32 -35 163 -178 290 -318z m1247 242 c13 -16 12 -17 -3 -4 -10 7 -18 15 -18
17 0 8 8 3 21 -13z m-1767 -820 l49 -53 -26 -32 c-14 -18 -37 -46 -51 -63
l-25 -30 -1 119 c0 66 1 117 3 115 2 -2 25 -28 51 -56z m148 -180 c82 -104
584 -812 594 -837 2 -6 -50 -40 -118 -76 -67 -36 -188 -100 -268 -142 -80 -43
-259 -137 -397 -210 -189 -99 -253 -137 -253 -150 0 -10 42 -85 94 -166 52
-81 91 -150 88 -153 -4 -3 -214 -115 -467 -249 -522 -275 -525 -277 -525 -295
0 -7 38 -61 84 -121 74 -95 82 -110 68 -119 -9 -7 -170 -89 -357 -185 -187
-95 -477 -242 -645 -328 -168 -85 -329 -168 -358 -184 -30 -16 -50 -23 -46
-16 4 7 103 119 219 248 734 816 875 974 875 987 0 8 -30 57 -67 110 -46 66
-63 100 -57 108 5 8 144 129 309 271 165 142 355 305 422 362 67 58 124 111
127 119 3 7 -28 54 -69 105 l-74 92 43 50 c23 28 105 125 182 216 76 91 226
270 333 398 107 127 198 232 202 232 5 0 32 -30 61 -67z m646 -1632 c40 -54
72 -106 72 -115 0 -15 -125 -170 -173 -215 -36 -33 -44 -82 -22 -131 21 -46
31 -29 -102 -182 -51 -58 -93 -112 -93 -120 0 -7 9 -26 19 -42 l20 -30 -59
-65 c-32 -36 -81 -91 -109 -121 l-51 -55 19 45 c10 25 44 103 75 173 52 117
56 134 56 202 0 74 0 74 75 204 77 133 90 178 64 219 -8 13 1 44 46 147 31 72
61 142 67 158 5 15 13 27 17 27 4 0 40 -45 79 -99z"
    />
    <path
      d="M8066 3910 c-99 -43 -247 -87 -356 -106 -114 -19 -376 -14 -480 10
-87 20 -115 8 -115 -48 l0 -39 180 -129 c99 -70 187 -137 196 -147 9 -11 23
-65 33 -128 9 -59 49 -299 90 -532 77 -448 78 -451 131 -451 12 0 30 6 40 14
20 15 25 82 59 804 11 235 18 319 29 335 8 12 87 97 176 189 134 140 161 173
161 197 0 31 -30 61 -60 61 -8 -1 -46 -14 -84 -30z m-224 -264 c-40 -41 -80
-91 -89 -113 -12 -28 -18 -91 -25 -253 -14 -332 -17 -335 -61 -65 -21 127 -43
244 -48 261 -12 40 -58 86 -139 140 -36 24 -62 44 -58 44 141 0 349 24 433 49
59 18 57 10 -13 -63z"
    />
    <path
      d="M9903 10123 c-26 -10 -363 -413 -365 -435 -1 -13 6 -37 17 -55 l18
-31 -96 -123 c-54 -67 -97 -130 -97 -140 0 -10 10 -38 21 -63 l22 -44 -107
-137 c-58 -75 -106 -144 -106 -154 0 -9 8 -28 17 -41 24 -36 181 -229 217
-267 34 -37 74 -43 98 -15 17 19 158 401 158 428 0 9 -5 33 -11 53 -10 35 -7
44 65 190 42 84 76 162 76 173 0 11 -7 32 -16 47 -16 27 -14 34 80 287 53 142
96 267 96 276 0 18 -45 59 -64 57 -6 0 -17 -3 -23 -6z m-69 -309 c-92 -244
-106 -301 -80 -323 9 -8 16 -18 16 -24 0 -6 -36 -82 -81 -170 l-81 -160 17
-43 16 -43 -41 -116 c-23 -64 -55 -152 -71 -195 l-31 -80 -109 135 c-60 73
-109 138 -109 143 0 5 45 67 100 138 109 141 117 162 80 222 l-20 33 105 134
c58 74 105 137 105 141 0 3 -12 21 -26 39 -25 34 -26 35 -7 58 60 76 296 347
299 344 2 -2 -35 -107 -82 -233z"
    />
    <path
      d="M8453 8961 c-189 -60 -309 -117 -463 -221 -164 -111 -204 -165 -186
-248 4 -16 123 -220 265 -453 218 -358 262 -424 282 -427 16 -2 172 66 429
188 223 105 415 197 427 206 14 9 23 24 23 41 0 15 -74 160 -174 342 -338 612
-319 582 -368 607 -41 21 -71 17 -235 -35z m270 -226 c236 -420 358 -648 350
-656 -9 -9 -660 -319 -677 -322 -15 -3 -466 740 -466 768 0 12 13 31 28 42 93
69 233 157 297 188 93 45 332 125 365 122 20 -2 37 -25 103 -142z"
    />
    <path
      d="M11875 7729 c-143 -26 -313 -58 -377 -70 -75 -14 -119 -27 -122 -36
-3 -7 0 -36 6 -63 6 -28 9 -52 6 -55 -3 -3 -112 -27 -242 -53 -162 -32 -240
-52 -246 -62 -4 -8 -3 -46 2 -84 5 -37 7 -70 5 -73 -3 -2 -121 -27 -263 -55
-143 -28 -262 -56 -266 -62 -4 -6 -6 -16 -3 -23 2 -7 27 -126 56 -265 28 -139
55 -261 61 -270 5 -10 16 -18 26 -17 9 0 121 64 247 143 252 157 279 181 273
250 l-3 39 85 37 c47 20 156 68 244 106 l158 69 -6 56 c-7 69 -4 72 154 161
119 68 355 211 473 289 51 33 67 49 65 64 -5 31 -47 28 -333 -26z m115 -63
c-35 -23 -291 -176 -427 -255 -96 -55 -117 -82 -110 -142 l6 -46 -182 -78
c-276 -119 -284 -123 -297 -155 -6 -16 -9 -38 -5 -49 9 -31 -10 -57 -73 -98
-114 -73 -346 -214 -356 -216 -8 -2 -95 385 -96 429 0 20 16 25 243 68 133 26
251 50 261 53 17 5 18 13 13 89 -5 72 -4 84 11 88 9 3 118 26 242 51 149 30
229 50 236 61 9 11 9 27 -2 67 -7 28 -12 52 -11 53 4 3 542 102 562 103 15 1
11 -5 -15 -23z"
    />
    <path
      d="M5425 6225 c-22 -8 -140 -46 -263 -85 -238 -77 -252 -85 -252 -147 0
-25 -6 -36 -22 -43 -13 -5 -124 -25 -248 -45 -124 -20 -235 -40 -247 -45 -20
-8 -23 -17 -23 -60 0 -62 0 -62 -220 -124 -283 -79 -518 -152 -545 -170 -28
-18 -32 -38 -12 -58 19 -19 802 -64 823 -47 9 7 14 31 14 65 l0 54 32 0 c18 0
129 -5 247 -11 249 -13 234 -18 244 87 4 37 8 69 10 71 3 2 123 -3 268 -10
172 -9 268 -10 277 -4 9 7 12 74 10 296 l-3 286 -25 2 c-14 1 -43 -4 -65 -12z
m35 -287 l0 -231 -117 6 c-229 13 -433 20 -434 16 0 -2 -6 -40 -12 -84 -9 -59
-16 -80 -27 -80 -8 0 -122 4 -254 9 -198 7 -240 6 -247 -5 -5 -8 -9 -38 -9
-66 l0 -53 -57 5 c-32 3 -168 12 -302 20 -134 8 -245 16 -247 18 -2 2 134 44
303 93 338 98 356 106 374 180 6 24 13 44 14 44 41 0 474 83 491 95 23 15 30
32 36 85 3 23 20 30 238 101 129 43 238 78 243 78 4 1 7 -103 7 -231z"
    />
    <path
      d="M7485 1819 c-301 -31 -486 -131 -628 -339 -99 -145 -165 -340 -188
-555 -40 -386 104 -614 431 -682 104 -21 357 -23 474 -4 233 38 394 135 529
320 26 35 47 60 47 57 0 -3 -14 -63 -30 -132 -41 -168 -42 -166 126 -207 135
-34 176 -39 328 -39 219 1 390 51 494 145 25 23 28 14 7 -23 -20 -34 -18 -64
3 -83 16 -15 54 -17 324 -17 270 0 307 2 319 16 8 9 37 60 64 113 l50 96 143
3 142 3 0 -99 c0 -83 3 -102 18 -115 16 -15 54 -17 330 -17 384 0 356 -12 347
153 -7 130 -55 1268 -55 1309 0 16 -9 37 -20 48 -19 19 -33 20 -456 20 -257 0
-443 -4 -453 -10 -10 -5 -148 -257 -306 -559 -159 -303 -290 -549 -291 -548
-1 1 38 169 87 372 49 204 105 436 124 516 19 81 35 158 35 172 0 54 -17 57
-341 57 -268 0 -299 -2 -318 -17 -16 -14 -33 -72 -80 -273 -137 -585 -159
-665 -197 -701 -25 -23 -32 -24 -154 -24 -73 0 -133 4 -139 10 -6 7 -1 31 15
70 53 127 94 330 94 460 0 233 -130 410 -350 475 -128 38 -332 49 -525 29z
m469 -79 c191 -49 304 -159 336 -330 31 -166 -28 -445 -142 -663 -175 -333
-397 -460 -808 -460 -181 0 -270 16 -375 67 -187 90 -261 264 -234 555 30 326
167 597 369 731 52 34 178 82 263 100 168 34 457 35 591 0z m1466 -14 c0 -18
-254 -1055 -270 -1100 -55 -161 -160 -254 -340 -303 -52 -15 -102 -18 -255
-17 -173 0 -199 3 -289 27 -54 15 -101 29 -104 32 -6 5 68 329 79 346 4 7 36
6 91 -1 93 -12 173 -4 228 25 68 35 89 98 225 685 37 157 68 291 70 298 3 9
69 12 285 12 154 0 280 -2 280 -4z m1280 -33 c0 -49 48 -1207 54 -1300 l4 -73
-289 0 -289 0 0 115 0 115 -193 0 -192 0 -58 -115 -57 -115 -280 0 -280 0 29
53 c16 28 106 201 201 382 95 182 214 409 265 505 51 96 127 241 170 323 l77
147 419 0 419 0 0 -37z"
    />
    <path
      d="M7485 1289 c-128 -32 -211 -173 -222 -380 -6 -108 5 -142 57 -179 43
-31 136 -38 194 -16 119 46 223 256 214 432 -4 78 -17 103 -70 130 -36 18
-124 25 -173 13z m155 -79 c37 -25 39 -108 6 -214 -53 -170 -125 -242 -230
-233 -93 8 -116 75 -82 238 28 128 88 212 164 224 20 4 42 8 47 10 20 6 70 -7
95 -25z"
    />
    <path
      d="M10184 1384 c-4 -10 -58 -124 -120 -251 l-112 -233 117 0 118 0 6
248 c3 136 3 249 1 251 -2 2 -7 -5 -10 -15z m-54 -349 l0 -75 -40 0 -40 0 37
75 c21 41 39 75 40 75 2 0 3 -34 3 -75z"
    />
    <path
      d="M11548 1805 c-314 -53 -498 -236 -553 -550 -18 -107 -19 -153 -1
-226 25 -109 85 -182 174 -213 52 -19 206 -36 317 -36 47 0 85 -4 85 -8 0 -5
-9 -17 -20 -27 -17 -16 -36 -17 -182 -13 -90 3 -218 13 -285 23 -117 17 -124
17 -142 1 -14 -13 -33 -75 -66 -211 -52 -216 -52 -227 13 -244 70 -19 267 -50
387 -60 487 -43 760 50 892 304 56 109 83 203 90 311 7 110 -11 177 -65 236
-68 75 -139 96 -349 105 -83 3 -158 10 -165 15 -20 13 14 34 66 42 49 8 339
-9 431 -24 79 -13 108 -13 128 3 20 14 120 423 115 471 -4 37 -24 48 -128 70
-207 42 -581 58 -742 31z m457 -56 c115 -10 344 -45 353 -54 3 -3 -87 -403
-94 -413 -1 -2 -55 5 -120 14 -67 9 -191 17 -284 18 -140 1 -170 -2 -197 -17
-38 -20 -53 -45 -53 -85 0 -57 24 -65 203 -74 242 -12 316 -37 359 -123 71
-139 -18 -454 -164 -579 -133 -114 -361 -160 -676 -137 -163 12 -414 50 -429
64 -7 7 65 324 77 339 3 4 43 1 90 -8 47 -8 171 -17 275 -21 166 -5 195 -4
223 11 42 22 64 57 60 98 -4 42 -34 58 -113 58 -111 1 -280 19 -325 35 -112
40 -162 156 -140 330 20 161 105 337 198 412 76 61 210 114 337 132 86 12 281
12 420 0z"
    />
    <path
      d="M4573 1773 c-13 -13 -68 -227 -192 -741 -165 -691 -172 -724 -157
-747 l16 -25 308 0 c234 0 312 3 326 13 15 11 37 86 81 272 6 27 13 16 63
-111 32 -78 63 -149 71 -158 12 -14 50 -16 355 -16 234 0 345 3 353 11 8 8 17
8 31 0 14 -7 124 -11 326 -11 328 0 329 0 341 53 3 12 79 331 170 709 91 378
165 699 165 712 0 53 -17 56 -346 56 l-303 0 -18 -23 c-12 -15 -76 -265 -182
-710 -91 -378 -167 -687 -170 -687 -5 0 -167 314 -249 481 -1 4 14 10 34 13
136 26 282 146 353 290 47 95 61 151 68 256 4 82 2 103 -16 151 -27 71 -87
141 -146 169 -110 53 -110 53 -707 57 -528 4 -558 3 -575 -14z m1190 -72 c162
-53 225 -183 183 -375 -49 -217 -195 -368 -399 -410 -37 -7 -71 -16 -73 -19
-3 -3 10 -34 29 -69 39 -71 175 -338 224 -441 l33 -67 -314 0 -313 0 -50 122
c-27 68 -70 176 -94 240 -24 65 -47 118 -50 118 -3 0 -13 -48 -21 -107 -9 -60
-31 -168 -48 -240 l-32 -133 -279 0 c-218 0 -279 3 -279 13 0 10 145 617 317
1330 l16 68 541 -3 c530 -4 542 -5 609 -27z m1007 25 c0 -3 -202 -844 -318
-1326 l-18 -75 -282 -3 c-155 -1 -282 0 -282 3 0 11 332 1390 337 1398 4 7
563 10 563 3z"
    />
    <path
      d="M5082 1332 c-3 -9 -20 -75 -37 -147 l-32 -130 75 -3 c97 -4 174 13
214 46 63 53 90 170 48 212 -24 24 -40 27 -163 34 -86 5 -99 3 -105 -12z m226
-80 c5 -34 -16 -78 -49 -106 -21 -18 -47 -26 -94 -31 -36 -4 -68 -6 -70 -3 -2
2 2 28 9 58 8 30 17 68 20 83 l7 28 87 -3 c83 -3 87 -4 90 -26z"
    />
  </g>
</svg>
